{"title":"Duel to the Death (1983) - Xian si jue","uid":6972401,"size":733950562,"categoryP":"video","categoryS":"movies","magnet":"?xt=urn:btih:b2e516e1b863d5c1011b7ffdc0714e48911a1d7a&amp;dn=Duel+to+the+Death+%281983%29+-+Xian+si+jue&amp;tr=udp%3A%2F%2Ftracker.openbittorrent.com%3A80&amp;tr=udp%3A%2F%2Fopen.demonii.com%3A1337&amp;tr=udp%3A%2F%2Ftracker.coppersurfer.tk%3A6969&amp;tr=udp%3A%2F%2Fexodus.desync.com%3A6969","seeders":1,"leechers":1,"uploader":"xiliaeuro","files":2,"time":1327129249,"description":"IMDB Ratings: 7.1/10\n\nOne of the last of the Old School Hong Kong martial arts flicks, this one deals with a legendary competition in swordplay and fighting that ends up being fought between two great warriors, a Chinese man and a Japanese man, who, over the course of the film, have become friends.\n\nFormat                         : AVI\nFormat/Info                    : Audio Video Interleave\nFile size                      : 700 MiB\nDuration                       : 1h 23mn\nOverall bit rate mode          : Variable\nOverall bit rate               : 1 172 Kbps\nWriting application            : Nandub v1.0rc2\nWriting library                : Nandub build 1852/release\n\nVideo\nID                             : 0\nFormat                         : MPEG-4 Visual\nFormat profile                 : Simple@L3\nFormat settings, BVOP          : No\nFormat settings, QPel          : No\nFormat settings, GMC           : No warppoints\nFormat settings, Matrix        : Default (MPEG)\nCodec ID                       : XVID\nCodec ID/Hint                  : XviD\nDuration                       : 1h 23mn\nBit rate                       : 1 026 Kbps\nWidth                          : 608 pixels\nHeight                         : 256 pixels\nDisplay aspect ratio           : 2.40:1\nFrame rate                     : 25.000 fps\nColor space                    : YUV\nChroma subsampling             : 4:2:0\nBit depth                      : 8 bits\nScan type                      : Progressive\nCompression mode               : Lossy\nBits/(Pixel*Frame)             : 0.264\nStream size                    : 613 MiB (88%)\nWriting library                : XviD 1.0.1 (UTC 2004-06-05)\n\nAudio\nID                             : 1\nFormat                         : MPEG Audio\nFormat version                 : Version 1\nFormat profile                 : Layer 3\nMode                           : Joint stereo\nMode extension                 : MS Stereo\nCodec ID                       : 55\nCodec ID/Hint                  : MP3\nDuration                       : 1h 23mn\nBit rate mode                  : Variable\nBit rate                       : 128 Kbps\nChannel(s)                     : 2 channels\nSampling rate                  : 48.0 KHz\nCompression mode               : Lossy\nStream size                    : 79.5 MiB (11%)\nAlignment                      : Aligned on interleaves\nInterleave, duration           : 24 ms (0.60 video frame)\nInterleave, preload duration   : 502 ms\nWriting library                : LAME3.90.\nEncoding settings              : -m j -V 4 -q 2 -lowpass 17.6 --abr 128\n\n","torrent":{"xt":"urn:btih:b2e516e1b863d5c1011b7ffdc0714e48911a1d7a","amp;dn":"Duel+to+the+Death+%281983%29+-+Xian+si+jue","amp;tr":["udp%3A%2F%2Ftracker.openbittorrent.com%3A80","udp%3A%2F%2Fopen.demonii.com%3A1337","udp%3A%2F%2Ftracker.coppersurfer.tk%3A6969","udp%3A%2F%2Fexodus.desync.com%3A6969"],"infoHash":"b2e516e1b863d5c1011b7ffdc0714e48911a1d7a","infoHashBuffer":{"type":"Buffer","data":[178,229,22,225,184,99,213,193,1,27,127,253,192,113,78,72,145,26,29,122]},"announce":[],"urlList":[]}}